<mxfile host="app.diagrams.net" modified="2023-04-02T08:53:44.386Z" agent="Mozilla/5.0 (Windows NT 10.0; Win64; x64) AppleWebKit/537.36 (KHTML, like Gecko) Chrome/111.0.0.0 Safari/537.36" etag="mW31TsTbhjJ1qfgHrAIe" version="21.1.1" type="device">
  <diagram id="RohTVyyrn0ZOglippYv4" name="ページ1">
    <mxGraphModel dx="967" dy="771" grid="1" gridSize="10" guides="1" tooltips="1" connect="1" arrows="1" fold="1" page="1" pageScale="1" pageWidth="827" pageHeight="1169" math="0" shadow="0">
      <root>
        <mxCell id="0" />
        <mxCell id="1" parent="0" />
        <mxCell id="lyxoTSHvQu06dNkUG1m9-47" value="" style="rounded=0;whiteSpace=wrap;html=1;dashed=1;fillColor=none;" parent="1" vertex="1">
          <mxGeometry x="230" y="101" width="380" height="249" as="geometry" />
        </mxCell>
        <mxCell id="lyxoTSHvQu06dNkUG1m9-13" value="Google Kubernetes&#xa;Engine" style="sketch=0;html=1;verticalAlign=top;labelPosition=center;verticalLabelPosition=bottom;align=center;spacingTop=-6;fontSize=11;fontStyle=1;fontColor=#999999;shape=image;aspect=fixed;imageAspect=0;image=data:image/svg+xml,PHN2ZyB4bWxucz0iaHR0cDovL3d3dy53My5vcmcvMjAwMC9zdmciIHhtbG5zOnY9Imh0dHBzOi8vdmVjdGEuaW8vbmFubyIgd2lkdGg9IjMyOS45MjU5OTcyMzE3OTM4IiBoZWlnaHQ9IjM3OC4yODQ5OTAzMTEyNzg4IiB2aWV3Qm94PSIwIDAgODcuMjkyOTk5MjY3NTc4MTIgMTAwLjA4Nzk5NzQzNjUyMzQ0Ij4mI3hhOzxzdHlsZSB0eXBlPSJ0ZXh0L2NzcyI+JiN4YTsJLnN0MHtmaWxsOiNhZWNiZmE7fSYjeGE7CS5zdDF7ZmlsbDojNjY5ZGY2O30mI3hhOwkuc3Qye2ZpbGw6IzQyODVmNDt9JiN4YTs8L3N0eWxlPiYjeGE7CTxwYXRoIGNsYXNzPSJzdDAiIGQ9Ik00My43NTEgMEwwIDI1LjQ2NXYyLjU4OCA0Ni45Mmw0My43NTIgMjUuMTE1IDQzLjU0MS0yNS4xMjFWMjUuNDczem0yLjQzOCAxMS44NTNsMzIuMTAzIDE4Ljc4MlY2OS43N0w0My43MzkgODkuNzA1IDkgNjkuNzYyVjMwLjY0MWwzMi4xOS0xOC43MzZ2MTQuMTU0TDI0LjUwMyAzNi4xNTNsMTkuMTcyIDExLjUwMiAxOC44ODYtMTEuNTU0LTE2LjM3Mi0xMC4wMjR6Ii8+JiN4YTsJPHBhdGggY2xhc3M9InN0MSIgZD0iTTIyLjAyNSA0MC40OTZsLjE2NiAxOS4xNDMtMTMuMjQ3IDcuMzN2Mi43NDJsMi42MzcgMS41MTQgMTIuNjQ4LTYuOTk5IDE2Ljk2MSAxMC42MDJWNTEuOTkzeiIvPiYjeGE7CTxwYXRoIGNsYXNzPSJzdDIiIGQ9Ik02NS4zNDQgNDAuMjZMNDYuMTg5IDUxLjk3OXYyMi44NDdsMTYuODk5LTEwLjU3NiAxMi41MzkgNi45NzQgMi42MDktMS41MDV2LTIuNzY1bC0xMi43ODQtNy4xMTJ6Ii8+JiN4YTs8L3N2Zz4=;" parent="1" vertex="1">
          <mxGeometry x="270" y="110" width="37" height="42" as="geometry" />
        </mxCell>
        <mxCell id="lyxoTSHvQu06dNkUG1m9-18" value="" style="group" parent="1" vertex="1" connectable="0">
          <mxGeometry x="490" y="202" width="80" height="80" as="geometry" />
        </mxCell>
        <mxCell id="lyxoTSHvQu06dNkUG1m9-17" value="" style="rounded=0;whiteSpace=wrap;html=1;" parent="lyxoTSHvQu06dNkUG1m9-18" vertex="1">
          <mxGeometry width="80" height="80" as="geometry" />
        </mxCell>
        <mxCell id="lyxoTSHvQu06dNkUG1m9-14" value="Persistent&#xa;Disk" style="sketch=0;html=1;verticalAlign=top;labelPosition=center;verticalLabelPosition=bottom;align=center;spacingTop=-6;fontSize=11;fontStyle=1;fontColor=#999999;shape=image;aspect=fixed;imageAspect=0;image=data:image/svg+xml,PHN2ZyB4bWxucz0iaHR0cDovL3d3dy53My5vcmcvMjAwMC9zdmciIHhtbG5zOnY9Imh0dHBzOi8vdmVjdGEuaW8vbmFubyIgd2lkdGg9IjE1Ljg0MDAwMDE1MjU4Nzg5IiBoZWlnaHQ9IjIwIiB2aWV3Qm94PSIwIDAgMTUuODQwMDAwMTUyNTg3ODkgMjAiPiYjeGE7CTxzdHlsZSB0eXBlPSJ0ZXh0L2NzcyI+JiN4YTsJLnN0MHtmaWxsOiM0Mjg1ZjQ7fSYjeGE7CS5zdDF7ZmlsbDojNjY5ZGY2O30mI3hhOwkuc3Qye2ZpbGw6I2FlY2JmYTt9JiN4YTsJPC9zdHlsZT4mI3hhOwk8cGF0aCBjbGFzcz0ic3QwIiBkPSJNMCAxNi4yNVYyMGgxNS44NHYtOC4zM2gtMy43NXY0LjU4eiIvPiYjeGE7CTxwYXRoIGNsYXNzPSJzdDIiIGQ9Ik0xNS44NCAzLjc1VjBIMHY4LjMzaDMuNzVWMy43NXoiLz4mI3hhOwk8cGF0aCBjbGFzcz0ic3QxIiBkPSJNMCAxMC40MnYzLjc1aDEwVjkuNThoNS44NFY1LjgzaC0xMHY0LjU5eiIvPiYjeGE7PC9zdmc+;" parent="lyxoTSHvQu06dNkUG1m9-18" vertex="1">
          <mxGeometry x="23" y="10" width="34" height="42" as="geometry" />
        </mxCell>
        <mxCell id="lyxoTSHvQu06dNkUG1m9-25" value="" style="group" parent="1" vertex="1" connectable="0">
          <mxGeometry x="390" y="202" width="80" height="80" as="geometry" />
        </mxCell>
        <mxCell id="lyxoTSHvQu06dNkUG1m9-20" value="" style="rounded=0;whiteSpace=wrap;html=1;" parent="lyxoTSHvQu06dNkUG1m9-25" vertex="1">
          <mxGeometry width="80" height="80" as="geometry" />
        </mxCell>
        <mxCell id="lyxoTSHvQu06dNkUG1m9-6" value="" style="sketch=0;html=1;dashed=0;whitespace=wrap;fillColor=#2875E2;strokeColor=#ffffff;points=[[0.005,0.63,0],[0.1,0.2,0],[0.9,0.2,0],[0.5,0,0],[0.995,0.63,0],[0.72,0.99,0],[0.5,1,0],[0.28,0.99,0]];shape=mxgraph.kubernetes.icon;prIcon=pv" parent="lyxoTSHvQu06dNkUG1m9-25" vertex="1">
          <mxGeometry x="15" y="16" width="50" height="48" as="geometry" />
        </mxCell>
        <mxCell id="lyxoTSHvQu06dNkUG1m9-26" value="" style="group" parent="1" vertex="1" connectable="0">
          <mxGeometry x="290" y="202" width="80" height="80" as="geometry" />
        </mxCell>
        <mxCell id="lyxoTSHvQu06dNkUG1m9-23" value="" style="rounded=0;whiteSpace=wrap;html=1;" parent="lyxoTSHvQu06dNkUG1m9-26" vertex="1">
          <mxGeometry width="80" height="80" as="geometry" />
        </mxCell>
        <mxCell id="lyxoTSHvQu06dNkUG1m9-7" value="" style="sketch=0;html=1;dashed=0;whitespace=wrap;fillColor=#2875E2;strokeColor=#ffffff;points=[[0.005,0.63,0],[0.1,0.2,0],[0.9,0.2,0],[0.5,0,0],[0.995,0.63,0],[0.72,0.99,0],[0.5,1,0],[0.28,0.99,0]];shape=mxgraph.kubernetes.icon;prIcon=pod" parent="lyxoTSHvQu06dNkUG1m9-26" vertex="1">
          <mxGeometry x="15" y="16" width="50" height="48" as="geometry" />
        </mxCell>
        <mxCell id="lyxoTSHvQu06dNkUG1m9-27" value="" style="group" parent="1" vertex="1" connectable="0">
          <mxGeometry x="190" y="202" width="80" height="80" as="geometry" />
        </mxCell>
        <mxCell id="lyxoTSHvQu06dNkUG1m9-24" value="" style="rounded=0;whiteSpace=wrap;html=1;" parent="lyxoTSHvQu06dNkUG1m9-27" vertex="1">
          <mxGeometry width="80" height="80" as="geometry" />
        </mxCell>
        <mxCell id="lyxoTSHvQu06dNkUG1m9-5" value="" style="sketch=0;html=1;dashed=0;whitespace=wrap;fillColor=#2875E2;strokeColor=#ffffff;points=[[0.005,0.63,0],[0.1,0.2,0],[0.9,0.2,0],[0.5,0,0],[0.995,0.63,0],[0.72,0.99,0],[0.5,1,0],[0.28,0.99,0]];shape=mxgraph.kubernetes.icon;prIcon=svc" parent="lyxoTSHvQu06dNkUG1m9-27" vertex="1">
          <mxGeometry x="15" y="16" width="50" height="48" as="geometry" />
        </mxCell>
        <mxCell id="lyxoTSHvQu06dNkUG1m9-28" style="edgeStyle=orthogonalEdgeStyle;rounded=0;orthogonalLoop=1;jettySize=auto;html=1;exitX=1;exitY=0.5;exitDx=0;exitDy=0;entryX=0;entryY=0.5;entryDx=0;entryDy=0;" parent="1" source="lyxoTSHvQu06dNkUG1m9-20" target="lyxoTSHvQu06dNkUG1m9-17" edge="1">
          <mxGeometry relative="1" as="geometry">
            <mxPoint x="520" y="242" as="targetPoint" />
          </mxGeometry>
        </mxCell>
        <mxCell id="lyxoTSHvQu06dNkUG1m9-29" style="edgeStyle=orthogonalEdgeStyle;rounded=0;orthogonalLoop=1;jettySize=auto;html=1;exitX=1;exitY=0.5;exitDx=0;exitDy=0;entryX=0;entryY=0.5;entryDx=0;entryDy=0;" parent="1" source="lyxoTSHvQu06dNkUG1m9-23" target="lyxoTSHvQu06dNkUG1m9-20" edge="1">
          <mxGeometry relative="1" as="geometry" />
        </mxCell>
        <mxCell id="lyxoTSHvQu06dNkUG1m9-30" style="edgeStyle=orthogonalEdgeStyle;rounded=0;orthogonalLoop=1;jettySize=auto;html=1;exitX=1;exitY=0.5;exitDx=0;exitDy=0;entryX=0;entryY=0.5;entryDx=0;entryDy=0;shape=link;" parent="1" source="lyxoTSHvQu06dNkUG1m9-24" target="lyxoTSHvQu06dNkUG1m9-23" edge="1">
          <mxGeometry relative="1" as="geometry" />
        </mxCell>
        <mxCell id="lyxoTSHvQu06dNkUG1m9-34" value="" style="edgeStyle=orthogonalEdgeStyle;shape=link;rounded=0;orthogonalLoop=1;jettySize=auto;html=1;entryX=0;entryY=0.5;entryDx=0;entryDy=0;" parent="1" source="lyxoTSHvQu06dNkUG1m9-32" target="lyxoTSHvQu06dNkUG1m9-24" edge="1">
          <mxGeometry relative="1" as="geometry">
            <mxPoint x="172" y="242" as="targetPoint" />
          </mxGeometry>
        </mxCell>
        <mxCell id="lyxoTSHvQu06dNkUG1m9-32" value="" style="sketch=0;html=1;aspect=fixed;strokeColor=none;shadow=0;align=center;verticalAlign=top;fillColor=#3B8DF1;shape=mxgraph.gcp2.network" parent="1" vertex="1">
          <mxGeometry x="50" y="208" width="68" height="68" as="geometry" />
        </mxCell>
        <mxCell id="lyxoTSHvQu06dNkUG1m9-44" value="" style="group" parent="1" vertex="1" connectable="0">
          <mxGeometry x="380" y="420" width="80" height="80" as="geometry" />
        </mxCell>
        <mxCell id="lyxoTSHvQu06dNkUG1m9-41" value="" style="rounded=0;whiteSpace=wrap;html=1;" parent="lyxoTSHvQu06dNkUG1m9-44" vertex="1">
          <mxGeometry width="80" height="80" as="geometry" />
        </mxCell>
        <mxCell id="0RCT5KcCmCsbLsMrZgnv-3" value="" style="editableCssRules=.*;html=1;shape=image;verticalLabelPosition=bottom;labelBackgroundColor=#ffffff;verticalAlign=top;aspect=fixed;imageAspect=0;image=data:image/svg+xml,PHN2ZyB4bWxucz0iaHR0cDovL3d3dy53My5vcmcvMjAwMC9zdmciIHhtbG5zOnY9Imh0dHBzOi8vdmVjdGEuaW8vbmFubyIgd2lkdGg9IjM2NS40NjQ5OTY3NzA0MjQ5MyIgaGVpZ2h0PSIzNzkuMjIyOTk0NDYzNTc3OTUiIHZpZXdCb3g9IjAgMCA5Ni42OTU5OTkxNDU1MDc4MSAxMDAuMzM1OTk4NTM1MTU2MjUiPiYjeGE7PHN0eWxlIHR5cGU9InRleHQvY3NzIj4mI3hhOwkuc3Qwe2ZpbGw6IzQyODVmNDt9JiN4YTsJLnN0MXtmaWxsOiNhZWNiZmE7fSYjeGE7PC9zdHlsZT4mI3hhOwk8cGF0aCBjbGFzcz0ic3QwIiBkPSJNMjkuNzk0IDEwMC4zMzZMNDYuOTIgNTAuMTY4aDQ5Ljc3NnpNMCA5OS42NzFsMTIuOTc2LTQ5LjUwMkgyOS4yMkwxNi44OTcgOTIuMDU0eiIvPiYjeGE7CTxwYXRoIGNsYXNzPSJzdDEiIGQ9Ik0yOS43OTQgMEw0Ni45MiA1MC4xNjhoNDkuNzc2ek0wIC42NjZsMTIuOTc2IDQ5LjUwMkgyOS4yMkwxNi44OTcgOC4yODN6Ii8+JiN4YTs8L3N2Zz4=;" vertex="1" parent="lyxoTSHvQu06dNkUG1m9-44">
          <mxGeometry x="20" y="10" width="40" height="40" as="geometry" />
        </mxCell>
        <mxCell id="0RCT5KcCmCsbLsMrZgnv-6" value="Cloud Run&lt;br&gt;jobs" style="text;html=1;strokeColor=none;fillColor=none;align=center;verticalAlign=middle;whiteSpace=wrap;rounded=0;" vertex="1" parent="lyxoTSHvQu06dNkUG1m9-44">
          <mxGeometry y="50" width="80" height="30" as="geometry" />
        </mxCell>
        <mxCell id="lyxoTSHvQu06dNkUG1m9-48" style="edgeStyle=orthogonalEdgeStyle;rounded=0;orthogonalLoop=1;jettySize=auto;html=1;exitX=0.5;exitY=0;exitDx=0;exitDy=0;entryX=0.5;entryY=1;entryDx=0;entryDy=0;dashed=1;" parent="1" source="lyxoTSHvQu06dNkUG1m9-41" target="lyxoTSHvQu06dNkUG1m9-47" edge="1">
          <mxGeometry relative="1" as="geometry" />
        </mxCell>
        <mxCell id="lyxoTSHvQu06dNkUG1m9-52" value="k8s manager" style="text;html=1;strokeColor=none;fillColor=none;align=center;verticalAlign=middle;whiteSpace=wrap;rounded=0;dashed=1;" parent="1" vertex="1">
          <mxGeometry x="373" y="500" width="90" height="30" as="geometry" />
        </mxCell>
        <mxCell id="lyxoTSHvQu06dNkUG1m9-53" value="minecraft server" style="text;html=1;strokeColor=none;fillColor=none;align=center;verticalAlign=middle;whiteSpace=wrap;rounded=0;dashed=1;" parent="1" vertex="1">
          <mxGeometry x="285" y="282" width="90" height="30" as="geometry" />
        </mxCell>
        <mxCell id="0RCT5KcCmCsbLsMrZgnv-1" value="Deploy or Delete" style="text;html=1;strokeColor=none;fillColor=none;align=center;verticalAlign=middle;whiteSpace=wrap;rounded=0;" vertex="1" parent="1">
          <mxGeometry x="430" y="370" width="100" height="30" as="geometry" />
        </mxCell>
        <mxCell id="0RCT5KcCmCsbLsMrZgnv-2" value="On GCP console" style="text;html=1;strokeColor=none;fillColor=none;align=center;verticalAlign=middle;whiteSpace=wrap;rounded=0;" vertex="1" parent="1">
          <mxGeometry x="285" y="390" width="110" height="30" as="geometry" />
        </mxCell>
      </root>
    </mxGraphModel>
  </diagram>
</mxfile>
